<svg width="39" height="34" viewBox="0 0 39 34" fill="none" xmlns="http://www.w3.org/2000/svg">
<path d="M8.00893 34C7.21032 34 6.50045 33.7539 5.87931 33.2618C5.25817 32.7697 4.82929 32.136 4.59266 31.3605L0.0672228 14.8079C-0.0806674 14.2412 0.0154612 13.7193 0.355609 13.2421C0.695756 12.7649 1.16161 12.5263 1.75317 12.5263H10.1829L17.9915 0.805263C18.1394 0.566667 18.3465 0.372807 18.6127 0.223684C18.8789 0.0745614 19.1599 0 19.4556 0C19.7514 0 20.0324 0.0745614 20.2986 0.223684C20.5648 0.372807 20.7719 0.566667 20.9197 0.805263L28.7283 12.5263H37.2468C37.8384 12.5263 38.3042 12.7649 38.6444 13.2421C38.9845 13.7193 39.0807 14.2412 38.9328 14.8079L34.4073 31.3605C34.1707 32.136 33.7418 32.7697 33.1207 33.2618C32.4995 33.7539 31.7897 34 30.9911 34H8.00893ZM7.96456 30.4211H31.0354L34.9397 16.1053H4.06026L7.96456 30.4211ZM19.5 26.8421C20.4761 26.8421 21.3117 26.4917 22.0067 25.7908C22.7018 25.0899 23.0494 24.2474 23.0494 23.2632C23.0494 22.2789 22.7018 21.4364 22.0067 20.7355C21.3117 20.0346 20.4761 19.6842 19.5 19.6842C18.5239 19.6842 17.6883 20.0346 16.9933 20.7355C16.2982 21.4364 15.9506 22.2789 15.9506 23.2632C15.9506 24.2474 16.2982 25.0899 16.9933 25.7908C17.6883 26.4917 18.5239 26.8421 19.5 26.8421ZM14.4865 12.5263H24.4691L19.4556 5.01053L14.4865 12.5263Z" fill="black"/>
</svg>
