<svg width="96" height="96" viewBox="0 0 96 96" fill="none" xmlns="http://www.w3.org/2000/svg">
<path d="M48 96C41.36 96 35.12 94.74 29.28 92.22C23.44 89.7 18.36 86.28 14.04 81.96C9.72 77.64 6.3 72.56 3.78 66.72C1.26 60.88 0 54.64 0 48C0 41.36 1.26 35.12 3.78 29.28C6.3 23.44 9.72 18.36 14.04 14.04C18.36 9.72 23.44 6.3 29.28 3.78C35.12 1.26 41.36 0 48 0C53.2 0 58.12 0.76 62.76 2.28C67.4 3.8 71.68 5.92 75.6 8.64L68.64 15.72C65.6 13.8 62.36 12.3 58.92 11.22C55.48 10.14 51.84 9.6 48 9.6C37.36 9.6 28.3 13.34 20.82 20.82C13.34 28.3 9.6 37.36 9.6 48C9.6 58.64 13.34 67.7 20.82 75.18C28.3 82.66 37.36 86.4 48 86.4C58.64 86.4 67.7 82.66 75.18 75.18C82.66 67.7 86.4 58.64 86.4 48C86.4 46.56 86.32 45.12 86.16 43.68C86 42.24 85.76 40.84 85.44 39.48L93.24 31.68C94.12 34.24 94.8 36.88 95.28 39.6C95.76 42.32 96 45.12 96 48C96 54.64 94.74 60.88 92.22 66.72C89.7 72.56 86.28 77.64 81.96 81.96C77.64 86.28 72.56 89.7 66.72 92.22C60.88 94.74 54.64 96 48 96ZM41.28 70.08L20.88 49.68L27.6 42.96L41.28 56.64L89.28 8.52L96 15.24L41.28 70.08Z" fill="#3FA149"/>
</svg>
